<?xml version="1.0" encoding="utf-8"?>
<!-- Generator: Adobe Illustrator 27.2.0, SVG Export Plug-In . SVG Version: 6.00 Build 0)  -->
<svg version="1.1" id="Слой_1" xmlns="http://www.w3.org/2000/svg" xmlns:xlink="http://www.w3.org/1999/xlink" x="0px" y="0px"
	 viewBox="0 0 170 170" style="enable-background:new 0 0 170 170;" xml:space="preserve">
<style type="text/css">
	.st0{fill:#FFC755;}
	.st1{fill:#FFFFFF;}
</style>
<g>
	<path class="st0" d="M110.5,101.5c18.8,0,34-15.2,34-34s-15.2-34-34-34c-18.8,0-34,15.2-34,34S91.7,101.5,110.5,101.5z"/>
	<path class="st1" d="M133.3,136.5c16.2,0,29.2-13.2,29.2-29.4c0-16.2-13.1-29.4-29.2-29.4c-2.2,0-4.3,0.3-6.4,0.7
		c-1.6-11.2-11.2-19.8-22.8-19.8c-3.7,0-7.1,0.9-10.2,2.4c-4.3-12.6-16.2-21.7-30.2-21.7c-17.7,0-32,14.4-32,32.1
		c0,3.6,0.6,7,1.7,10.2C18.9,82.6,7.5,94.5,7.5,109.1c0,14.6,12.2,27.4,27.3,27.4H133.3z"/>
</g>
</svg>
