<svg width="170" height="170" viewBox="0 0 170 170" fill="none" xmlns="http://www.w3.org/2000/svg">
<path d="M95.2837 93.8333C74.4408 93.8333 57.532 76.9245 57.532 56.0419C57.532 48.6704 59.6779 41.8354 63.314 36.0137C45.531 39.0934 32 54.5517 32 73.209C32 94.0717 48.9088 111 69.7516 111C83.2429 111 95.0452 103.887 101.721 93.2372C99.6152 93.5948 97.4693 93.8333 95.2638 93.8333H95.2837Z" fill="#FFC755"/>
<path d="M77.3416 48.8691L79.2888 54.3928L84.7926 56.3201L79.2888 58.2673L77.3416 63.7711L75.4143 58.2673L69.8906 56.3201L75.4143 54.3928L77.3416 48.8691Z" fill="white"/>
<path d="M85.7662 35L86.8988 38.2586L90.1573 39.411L86.8988 40.5435L85.7662 43.8021L84.6138 40.5435L81.3552 39.411L84.6138 38.2586L85.7662 35Z" fill="#FFC755"/>
<path d="M95.2836 75.6719L96.138 78.1357L98.6018 79.0099L96.138 79.8643L95.2836 82.3281L94.4093 79.8643L91.9456 79.0099L94.4093 78.1357L95.2836 75.6719Z" fill="#FFC755"/>
</svg>
