<svg width="170" height="170" viewBox="0 0 170 170" fill="none" xmlns="http://www.w3.org/2000/svg">
<path d="M98.1516 97.7264C72.7412 97.7264 52.1271 77.1123 52.1271 51.6535C52.1271 42.6666 54.7432 34.3338 59.1761 27.2363C37.4962 30.991 21 49.8368 21 72.5825C21 98.0171 41.6141 118.655 67.0245 118.655C83.4722 118.655 97.8609 109.983 106 96.9997C103.432 97.4357 100.816 97.7264 98.1274 97.7264H98.1516Z" fill="#FFC755"/>
<path d="M76.2781 42.9082L78.652 49.6423L85.3619 51.992L78.652 54.3659L76.2781 61.0758L73.9285 54.3659L67.1943 51.992L73.9285 49.6423L76.2781 42.9082Z" fill="white"/>
<path d="M86.549 26L87.9297 29.9726L91.9024 31.3776L87.9297 32.7583L86.549 36.731L85.144 32.7583L81.1714 31.3776L85.144 29.9726L86.549 26Z" fill="#FFC755"/>
<path d="M98.1521 75.5859L99.1937 78.5896L102.197 79.6555L99.1937 80.6971L98.1521 83.7008L97.0862 80.6971L94.0825 79.6555L97.0862 78.5896L98.1521 75.5859Z" fill="#FFC755"/>
</svg>
