<svg width="170" height="170" viewBox="0 0 170 170" fill="none" xmlns="http://www.w3.org/2000/svg">
<path d="M17.9697 137.921H9L21.9427 97H30.8971L17.9697 137.921Z" fill="#0053D4"/>
<path d="M41.2573 137.921H32.2876L45.215 97H54.1847L41.2573 137.921Z" fill="#0053D4"/>
<path d="M109.928 137.921H100.959L113.901 97H122.856L109.928 137.921Z" fill="#0053D4"/>
<path d="M133.216 137.921H124.246L137.174 97H146.143L133.216 137.921Z" fill="#0053D4"/>
<path d="M148.701 76.4329C159.998 76.4329 169.156 66.8934 169.156 55.978C169.156 45.0473 160.594 36.1499 149.801 35.569C150.612 33.1841 151.055 30.6158 151.055 27.9557C151.055 14.7319 140.323 4 127.099 4C116.597 4 107.699 10.7877 104.458 20.1896C102.15 19.0583 99.5662 18.3857 96.8144 18.3857C88.1157 18.3857 80.9305 24.7912 79.7075 33.1535C78.1635 32.8172 76.5583 32.6185 74.9072 32.6185C62.8147 32.6185 53 42.4332 53 54.5257C53 66.6182 62.7994 76.4329 74.9072 76.4329H148.701Z" fill="#CCCCCC"/>
<path d="M126.765 115.093C142.918 115.093 156 101.939 156 85.7288C156 69.5191 142.904 56.3646 126.765 56.3646C124.562 56.3646 122.42 56.6355 120.367 57.0871C118.718 45.8892 109.143 37.2952 97.5303 37.2952C93.8591 37.2952 90.4127 38.1832 87.3259 39.7033C83.0103 27.0907 71.1276 18 57.1171 18C39.4653 18 25.1551 32.3736 25.1551 50.1035C25.1551 53.6705 25.7544 57.1021 26.8333 60.3079C12.4332 61.1056 1 73.0259 1 87.6704C1 102.315 13.2274 115.093 28.3018 115.093H126.765Z" fill="white"/>
<path d="M62.017 127.084L73.4928 90.3496H100.524L85.4728 115.074H96.2762L60 166.126L71.3993 127.084H62.017Z" fill="#FFC755"/>
</svg>
