<svg width="170" height="170" viewBox="0 0 170 170" fill="none" xmlns="http://www.w3.org/2000/svg">
<path d="M107.449 73.2232C107.449 52.4753 90.5696 35.6436 69.7233 35.6436C48.877 35.6436 31.9976 52.4753 31.9976 73.2232C31.9976 93.971 48.877 110.803 69.7233 110.803C90.5697 110.803 107.449 93.971 107.449 73.2232Z" fill="#FFC755" stroke="#FFC755" stroke-miterlimit="10"/>
<path d="M0.283691 72.6152L23.3051 72.6152" stroke="#FFC755" stroke-width="3" stroke-miterlimit="320"/>
<path d="M115.261 72.6152L138.283 72.6152" stroke="#FFC755" stroke-width="3" stroke-miterlimit="320"/>
<path d="M69.2832 4.52529L69.2832 27.6426" stroke="#FFC755" stroke-width="3" stroke-miterlimit="320"/>
<path d="M69.2827 118.803L69.2827 141.92" stroke="#FFC755" stroke-width="3" stroke-miterlimit="320"/>
<path d="M26.4526 30.0354L36.4458 39.8555" stroke="#FFC755" stroke-width="3" stroke-miterlimit="320"/>
<path d="M102.201 105.44L111.92 115.26" stroke="#FFC755" stroke-width="3" stroke-miterlimit="320"/>
<path d="M111.999 30.0354L102.151 39.8555" stroke="#FFC755" stroke-width="3" stroke-miterlimit="320"/>
<path d="M36.3649 105.44L26.5171 115.26" stroke="#FFC755" stroke-width="3" stroke-miterlimit="320"/>
</svg>
