<svg width="170" height="170" viewBox="0 0 170 170" fill="none" xmlns="http://www.w3.org/2000/svg">
<path d="M40.1846 135.062V123.094" stroke="white" stroke-miterlimit="10"/>
<path d="M35 126.098L45.3692 132.074" stroke="white" stroke-miterlimit="10"/>
<path d="M35 132.074L45.3692 126.098" stroke="white" stroke-miterlimit="10"/>
<path d="M65.4951 135.062V123.094" stroke="white" stroke-miterlimit="10"/>
<path d="M60.3105 126.098L70.6797 132.074" stroke="white" stroke-miterlimit="10"/>
<path d="M60.3105 132.074L70.6797 126.098" stroke="white" stroke-miterlimit="10"/>
<path d="M90.8052 135.062V123.094" stroke="white" stroke-miterlimit="10"/>
<path d="M85.6206 126.098L95.9898 132.074" stroke="white" stroke-miterlimit="10"/>
<path d="M85.6206 132.074L95.9898 126.098" stroke="white" stroke-miterlimit="10"/>
<path d="M116.116 135.062V123.094" stroke="white" stroke-miterlimit="10"/>
<path d="M110.931 126.098L121.3 132.074" stroke="white" stroke-miterlimit="10"/>
<path d="M110.931 132.074L121.3 126.098" stroke="white" stroke-miterlimit="10"/>
<path d="M139.858 48.3233C121.056 48.3233 105.815 33.0829 105.815 14.2805C105.815 10.6883 106.372 7.24647 107.394 4C93.2955 8.1633 83 21.1943 83 36.645C83 55.4475 98.2404 70.6879 117.043 70.6879C132.253 70.6879 145.134 60.708 149.492 46.9406C146.441 47.8424 143.195 48.3383 139.858 48.3383V48.3233Z" fill="#FFC755"/>
<path d="M126.765 115.093C142.918 115.093 156 101.939 156 85.7288C156 69.5191 142.904 56.3646 126.765 56.3646C124.562 56.3646 122.42 56.6355 120.367 57.0871C118.718 45.8892 109.143 37.2952 97.5303 37.2952C93.8591 37.2952 90.4127 38.1832 87.3259 39.7033C83.0103 27.0907 71.1276 18 57.1171 18C39.4653 18 25.1551 32.3736 25.1551 50.1035C25.1551 53.6705 25.7544 57.1021 26.8333 60.3079C12.4332 61.1056 1 73.0259 1 87.6704C1 102.315 13.2274 115.093 28.3018 115.093H126.765Z" fill="white"/>
</svg>
