<svg width="170" height="170" viewBox="0 0 170 170" fill="none" xmlns="http://www.w3.org/2000/svg">
<path d="M40.1846 127.062V115.094" stroke="white" stroke-miterlimit="10"/>
<path d="M35 118.098L45.3692 124.074" stroke="white" stroke-miterlimit="10"/>
<path d="M35 124.074L45.3692 118.098" stroke="white" stroke-miterlimit="10"/>
<path d="M65.4949 127.062V115.094" stroke="white" stroke-miterlimit="10"/>
<path d="M60.3103 118.098L70.6795 124.074" stroke="white" stroke-miterlimit="10"/>
<path d="M60.3103 124.074L70.6795 118.098" stroke="white" stroke-miterlimit="10"/>
<path d="M90.8052 127.062V115.094" stroke="white" stroke-miterlimit="10"/>
<path d="M85.6206 118.098L95.9898 124.074" stroke="white" stroke-miterlimit="10"/>
<path d="M85.6206 124.074L95.9898 118.098" stroke="white" stroke-miterlimit="10"/>
<path d="M116.116 127.062V115.094" stroke="white" stroke-miterlimit="10"/>
<path d="M110.931 118.098L121.3 124.074" stroke="white" stroke-miterlimit="10"/>
<path d="M110.931 124.074L121.3 118.098" stroke="white" stroke-miterlimit="10"/>
<path d="M114 72C132.778 72 148 56.7777 148 38C148 19.2223 132.778 4 114 4C95.2223 4 80 19.2223 80 38C80 56.7777 95.2223 72 114 72Z" fill="#FFC755"/>
<path d="M126.765 107.093C142.918 107.093 156 93.9386 156 77.7288C156 61.5191 142.904 48.3646 126.765 48.3646C124.562 48.3646 122.42 48.6355 120.367 49.0871C118.718 37.8892 109.143 29.2952 97.5303 29.2952C93.8591 29.2952 90.4127 30.1832 87.3259 31.7033C83.0103 19.0907 71.1276 10 57.1171 10C39.4653 10 25.1551 24.3736 25.1551 42.1035C25.1551 45.6705 25.7544 49.1021 26.8333 52.3079C12.4332 53.1056 1 65.0259 1 79.6704C1 94.3148 13.2274 107.093 28.3018 107.093H126.765Z" fill="white"/>
</svg>
